G75*
%MOIN*%
%OFA0B0*%
%FSLAX25Y25*%
%IPPOS*%
%LPD*%
%AMOC8*
5,1,8,0,0,1.08239X$1,22.5*
%
%ADD10R,0.06706X0.05918*%
%ADD11R,0.05918X0.06706*%
%ADD12R,0.08477X0.06706*%
%ADD13R,0.06706X0.08477*%
%ADD14C,0.06737*%
%ADD15C,0.12611*%
%ADD16C,0.05131*%
%ADD17R,0.07800X0.07800*%
%ADD18C,0.07800*%
%ADD19R,0.04737X0.04737*%
%ADD20R,0.06706X0.08674*%
%ADD21R,0.15761X0.08674*%
%ADD22C,0.09461*%
%ADD23C,0.06000*%
%ADD24C,0.04369*%
%ADD25OC8,0.04762*%
D10*
X0142479Y0083260D03*
X0142479Y0090740D03*
X0161479Y0075740D03*
X0161479Y0068260D03*
X0177479Y0048740D03*
X0177479Y0041260D03*
X0199479Y0041260D03*
X0199479Y0048740D03*
X0155479Y0043740D03*
X0155479Y0036260D03*
X0176479Y0092260D03*
X0176479Y0099740D03*
X0188479Y0098260D03*
X0188479Y0105740D03*
X0211479Y0108260D03*
X0211479Y0115740D03*
X0256479Y0088740D03*
X0256479Y0081260D03*
X0294479Y0089260D03*
X0294479Y0096740D03*
X0133479Y0165260D03*
X0133479Y0172740D03*
D11*
X0098219Y0128000D03*
X0090739Y0128000D03*
X0133739Y0068000D03*
X0141219Y0068000D03*
X0209739Y0066000D03*
X0217219Y0066000D03*
X0217219Y0076000D03*
X0209739Y0076000D03*
X0241739Y0100000D03*
X0249219Y0100000D03*
X0276739Y0126000D03*
X0284219Y0126000D03*
X0358739Y0128000D03*
X0366219Y0128000D03*
X0366219Y0138000D03*
X0358739Y0138000D03*
X0358739Y0118000D03*
X0366219Y0118000D03*
X0366219Y0108000D03*
X0358739Y0108000D03*
X0358739Y0098000D03*
X0366219Y0098000D03*
X0366219Y0088000D03*
X0358739Y0088000D03*
X0358739Y0078000D03*
X0366219Y0078000D03*
X0366219Y0068000D03*
X0358739Y0068000D03*
D12*
X0140892Y0055000D03*
X0130065Y0055000D03*
X0099892Y0141000D03*
X0089065Y0141000D03*
D13*
X0120479Y0165587D03*
X0120479Y0176413D03*
X0224479Y0119413D03*
X0224479Y0108587D03*
X0130479Y0094413D03*
X0130479Y0083587D03*
D14*
X0086471Y0078937D02*
X0080534Y0078937D01*
X0080534Y0071063D02*
X0086471Y0071063D01*
X0086471Y0061220D02*
X0080534Y0061220D01*
X0080534Y0088780D02*
X0086471Y0088780D01*
D15*
X0071479Y0098031D03*
X0071479Y0051969D03*
D16*
X0071085Y0066142D03*
X0071085Y0083858D03*
D17*
X0116479Y0225000D03*
X0076479Y0240000D03*
X0116479Y0325000D03*
X0196479Y0325000D03*
X0276479Y0325000D03*
X0356479Y0325000D03*
X0356479Y0225000D03*
X0286479Y0172000D03*
X0276479Y0225000D03*
X0196479Y0225000D03*
X0386479Y0138000D03*
X0416479Y0148000D03*
D18*
X0426479Y0148000D03*
X0426479Y0138000D03*
X0426479Y0128000D03*
X0416479Y0128000D03*
X0416479Y0138000D03*
X0396479Y0138000D03*
X0396479Y0128000D03*
X0386479Y0128000D03*
X0386479Y0118000D03*
X0396479Y0118000D03*
X0396479Y0108000D03*
X0386479Y0108000D03*
X0386479Y0098000D03*
X0396479Y0098000D03*
X0396479Y0088000D03*
X0386479Y0088000D03*
X0386479Y0078000D03*
X0396479Y0078000D03*
X0396479Y0068000D03*
X0386479Y0068000D03*
X0416479Y0068000D03*
X0426479Y0068000D03*
X0426479Y0078000D03*
X0416479Y0078000D03*
X0416479Y0088000D03*
X0426479Y0088000D03*
X0426479Y0098000D03*
X0416479Y0098000D03*
X0416479Y0108000D03*
X0426479Y0108000D03*
X0426479Y0118000D03*
X0416479Y0118000D03*
X0416479Y0058000D03*
X0426479Y0058000D03*
X0306479Y0172000D03*
X0296479Y0172000D03*
X0296479Y0225000D03*
X0286479Y0225000D03*
X0306479Y0225000D03*
X0316479Y0225000D03*
X0326479Y0225000D03*
X0336479Y0225000D03*
X0346479Y0225000D03*
X0366479Y0225000D03*
X0376479Y0225000D03*
X0386479Y0225000D03*
X0396479Y0225000D03*
X0406479Y0225000D03*
X0416479Y0225000D03*
X0426479Y0225000D03*
X0426479Y0325000D03*
X0416479Y0325000D03*
X0406479Y0325000D03*
X0396479Y0325000D03*
X0386479Y0325000D03*
X0376479Y0325000D03*
X0366479Y0325000D03*
X0346479Y0325000D03*
X0336479Y0325000D03*
X0326479Y0325000D03*
X0316479Y0325000D03*
X0306479Y0325000D03*
X0296479Y0325000D03*
X0286479Y0325000D03*
X0266479Y0325000D03*
X0256479Y0325000D03*
X0246479Y0325000D03*
X0236479Y0325000D03*
X0226479Y0325000D03*
X0216479Y0325000D03*
X0206479Y0325000D03*
X0186479Y0325000D03*
X0176479Y0325000D03*
X0166479Y0325000D03*
X0156479Y0325000D03*
X0146479Y0325000D03*
X0136479Y0325000D03*
X0126479Y0325000D03*
X0086479Y0250000D03*
X0086479Y0240000D03*
X0076479Y0250000D03*
X0126479Y0225000D03*
X0136479Y0225000D03*
X0146479Y0225000D03*
X0156479Y0225000D03*
X0166479Y0225000D03*
X0176479Y0225000D03*
X0186479Y0225000D03*
X0206479Y0225000D03*
X0216479Y0225000D03*
X0226479Y0225000D03*
X0236479Y0225000D03*
X0246479Y0225000D03*
X0256479Y0225000D03*
X0266479Y0225000D03*
D19*
X0090479Y0115937D03*
X0090479Y0108063D03*
X0110542Y0083000D03*
X0118416Y0083000D03*
X0141479Y0043937D03*
X0141479Y0036063D03*
D20*
X0105534Y0153598D03*
X0096479Y0153598D03*
X0087424Y0153598D03*
D21*
X0096479Y0178402D03*
D22*
X0072227Y0020748D03*
X0072227Y0186102D03*
X0434431Y0186102D03*
X0434431Y0020748D03*
D23*
X0086479Y0272400D02*
X0086479Y0277600D01*
X0086479Y0302400D02*
X0086479Y0307600D01*
D24*
X0180479Y0179000D03*
X0162479Y0173000D03*
X0146479Y0175000D03*
X0122479Y0149000D03*
X0112479Y0135000D03*
X0124479Y0119000D03*
X0140479Y0133000D03*
X0156479Y0133000D03*
X0166479Y0119000D03*
X0184479Y0123000D03*
X0202479Y0105000D03*
X0211479Y0099000D03*
X0218479Y0103000D03*
X0222479Y0095000D03*
X0228479Y0079000D03*
X0234479Y0079000D03*
X0240479Y0079000D03*
X0248479Y0061000D03*
X0272479Y0065000D03*
X0264479Y0089000D03*
X0274479Y0091000D03*
X0284479Y0099000D03*
X0276479Y0105000D03*
X0268479Y0113000D03*
X0259479Y0100000D03*
X0236479Y0109000D03*
X0197479Y0086000D03*
X0191479Y0082000D03*
X0187479Y0088000D03*
X0176479Y0085000D03*
X0174479Y0076000D03*
X0176479Y0067000D03*
X0177479Y0058000D03*
X0187479Y0058000D03*
X0199479Y0058000D03*
X0200479Y0066000D03*
X0200479Y0076000D03*
X0216479Y0053000D03*
X0220479Y0039000D03*
X0232479Y0035000D03*
X0214479Y0027000D03*
X0206479Y0031000D03*
X0166479Y0027000D03*
X0156479Y0055000D03*
X0149479Y0068000D03*
X0150479Y0083000D03*
X0160479Y0093000D03*
X0124479Y0063000D03*
X0098479Y0039000D03*
X0120479Y0029000D03*
X0076479Y0119000D03*
X0076479Y0143000D03*
X0208479Y0173000D03*
X0222479Y0175000D03*
X0226479Y0151000D03*
X0244479Y0151000D03*
X0270479Y0141000D03*
X0284479Y0153000D03*
X0314479Y0157000D03*
X0334479Y0157000D03*
X0322479Y0143000D03*
X0314479Y0139000D03*
X0322479Y0135000D03*
X0322479Y0123000D03*
X0314479Y0118000D03*
X0322479Y0115000D03*
X0322479Y0101000D03*
X0314479Y0098000D03*
X0322479Y0093000D03*
X0322479Y0073000D03*
X0314479Y0069000D03*
X0322479Y0065000D03*
X0334479Y0041000D03*
X0294479Y0041000D03*
X0378479Y0046000D03*
X0284479Y0115000D03*
X0362479Y0151000D03*
X0334479Y0183000D03*
D25*
X0356479Y0250000D03*
X0356479Y0300000D03*
X0426479Y0300000D03*
X0426479Y0245000D03*
X0276479Y0250000D03*
X0276479Y0300000D03*
X0196479Y0300000D03*
X0196479Y0250000D03*
X0116479Y0250000D03*
X0116479Y0300000D03*
X0076479Y0320000D03*
M02*
