%
M48
M72
T01C0.0197
T02C0.0236
T03C0.0320
T04C0.0394
T05C0.0433
T06C0.0787
T07C0.0866
%
T01
X9848Y3900
X12048Y2900
X15648Y5500
X14948Y6800
X15048Y8300
X16048Y9300
X17648Y8500
X17448Y7600
X17648Y6700
X17748Y5800
X18748Y5800
X19948Y5800
X20048Y6600
X20048Y7600
X19748Y8600
X19148Y8200
X18748Y8800
X20248Y10500
X21148Y9900
X21848Y10300
X22248Y9500
X22848Y7900
X23448Y7900
X24048Y7900
X24848Y6100
X27248Y6500
X26448Y8900
X27448Y9100
X28448Y9900
X27648Y10500
X26848Y11300
X25948Y10000
X23648Y10900
X27048Y14100
X28448Y15300
X31448Y15700
X33448Y15700
X32248Y14300
X31448Y13900
X32248Y13500
X32248Y12300
X31448Y11800
X32248Y11500
X32248Y10100
X31448Y9800
X32248Y9300
X32248Y7300
X31448Y6900
X32248Y6500
X33448Y4100
X29448Y4100
X23248Y3500
X22048Y3900
X21448Y2700
X20648Y3100
X21648Y5300
X16648Y2700
X12448Y6300
X12448Y11900
X11248Y13500
X12248Y14900
X14048Y13300
X15648Y13300
X16648Y11900
X18448Y12300
X22648Y15100
X24448Y15100
X22248Y17500
X20848Y17300
X18048Y17900
X16248Y17300
X14648Y17500
X7648Y14300
X7648Y11900
X28448Y11500
X36248Y15100
X33448Y18300
X37848Y4600
T02
X42648Y24500
X35648Y25000
X35648Y30000
X42648Y30000
X27648Y30000
X27648Y25000
X19648Y25000
X19648Y30000
X11648Y30000
X7648Y32000
X11648Y25000
T03
X8648Y27500
X8648Y30500
T04
X11648Y32500
X12648Y32500
X13648Y32500
X14648Y32500
X15648Y32500
X16648Y32500
X17648Y32500
X18648Y32500
X19648Y32500
X20648Y32500
X21648Y32500
X22648Y32500
X23648Y32500
X24648Y32500
X25648Y32500
X26648Y32500
X27648Y32500
X28648Y32500
X29648Y32500
X30648Y32500
X31648Y32500
X32648Y32500
X33648Y32500
X34648Y32500
X35648Y32500
X36648Y32500
X37648Y32500
X38648Y32500
X39648Y32500
X40648Y32500
X41648Y32500
X42648Y32500
X42648Y22500
X41648Y22500
X40648Y22500
X39648Y22500
X38648Y22500
X37648Y22500
X36648Y22500
X35648Y22500
X34648Y22500
X33648Y22500
X32648Y22500
X31648Y22500
X30648Y22500
X29648Y22500
X28648Y22500
X27648Y22500
X26648Y22500
X25648Y22500
X24648Y22500
X23648Y22500
X22648Y22500
X21648Y22500
X20648Y22500
X19648Y22500
X18648Y22500
X17648Y22500
X16648Y22500
X15648Y22500
X14648Y22500
X13648Y22500
X12648Y22500
X11648Y22500
X8648Y24000
X8648Y25000
X7648Y25000
X7648Y24000
X8053Y8878
X8053Y7894
X8053Y7106
X8053Y6122
X28648Y17200
X29648Y17200
X30648Y17200
X38648Y13800
X39648Y13800
X39648Y12800
X38648Y12800
X38648Y11800
X39648Y11800
X39648Y10800
X38648Y10800
X38648Y9800
X39648Y9800
X39648Y8800
X38648Y8800
X38648Y7800
X39648Y7800
X39648Y6800
X38648Y6800
X41648Y6800
X42648Y6800
X42648Y7800
X41648Y7800
X41648Y8800
X42648Y8800
X42648Y9800
X41648Y9800
X41648Y10800
X42648Y10800
X42648Y11800
X41648Y11800
X41648Y12800
X42648Y12800
X42648Y13800
X41648Y13800
X41648Y14800
X42648Y14800
X42648Y5800
X41648Y5800
T05
X7109Y6614
X7109Y8386
T06
X7148Y9803
X7148Y5197
T07
X7223Y2075
X7223Y18610
X43443Y18610
X43443Y2075
M30
