G75*
%MOIN*%
%OFA0B0*%
%FSLAX25Y25*%
%IPPOS*%
%LPD*%
%AMOC8*
5,1,8,0,0,1.08239X$1,22.5*
%
%ADD10R,0.06706X0.05918*%
%ADD11C,0.06737*%
%ADD12C,0.12611*%
%ADD13C,0.05131*%
%ADD14R,0.07800X0.07800*%
%ADD15C,0.07800*%
%ADD16R,0.05524X0.05524*%
%ADD17R,0.05918X0.06706*%
%ADD18R,0.02769X0.09461*%
%ADD19R,0.06600X0.01900*%
%ADD20R,0.01900X0.06600*%
%ADD21R,0.06706X0.02769*%
%ADD22R,0.02769X0.06706*%
%ADD23R,0.08674X0.08674*%
%ADD24R,0.06706X0.08477*%
%ADD25R,0.04737X0.04737*%
%ADD26R,0.03162X0.04343*%
%ADD27C,0.09461*%
%ADD28R,0.04343X0.03162*%
%ADD29R,0.03400X0.08800*%
%ADD30C,0.06000*%
%ADD31C,0.04369*%
%ADD32OC8,0.04762*%
D10*
X0123479Y0098260D03*
X0123479Y0105740D03*
X0140479Y0115260D03*
X0140479Y0122740D03*
X0156479Y0122740D03*
X0156479Y0115260D03*
X0192479Y0131260D03*
X0192479Y0138740D03*
X0152479Y0149260D03*
X0152479Y0156740D03*
X0116479Y0266260D03*
X0116479Y0273740D03*
X0196479Y0273740D03*
X0196479Y0266260D03*
X0276479Y0266260D03*
X0276479Y0273740D03*
X0356479Y0273740D03*
X0356479Y0266260D03*
X0362479Y0171740D03*
X0362479Y0164260D03*
D11*
X0086471Y0088780D02*
X0080534Y0088780D01*
X0080534Y0078937D02*
X0086471Y0078937D01*
X0086471Y0071063D02*
X0080534Y0071063D01*
X0080534Y0061220D02*
X0086471Y0061220D01*
D12*
X0071479Y0051969D03*
X0071479Y0098031D03*
D13*
X0071085Y0083858D03*
X0071085Y0066142D03*
D14*
X0116479Y0225000D03*
X0076479Y0240000D03*
X0116479Y0325000D03*
X0196479Y0325000D03*
X0276479Y0325000D03*
X0356479Y0325000D03*
X0356479Y0225000D03*
X0286479Y0172000D03*
X0276479Y0225000D03*
X0196479Y0225000D03*
X0386479Y0138000D03*
X0416479Y0148000D03*
D15*
X0426479Y0148000D03*
X0426479Y0138000D03*
X0426479Y0128000D03*
X0416479Y0128000D03*
X0416479Y0138000D03*
X0396479Y0138000D03*
X0396479Y0128000D03*
X0386479Y0128000D03*
X0386479Y0118000D03*
X0396479Y0118000D03*
X0396479Y0108000D03*
X0386479Y0108000D03*
X0386479Y0098000D03*
X0396479Y0098000D03*
X0396479Y0088000D03*
X0386479Y0088000D03*
X0386479Y0078000D03*
X0396479Y0078000D03*
X0396479Y0068000D03*
X0386479Y0068000D03*
X0416479Y0068000D03*
X0426479Y0068000D03*
X0426479Y0078000D03*
X0416479Y0078000D03*
X0416479Y0088000D03*
X0426479Y0088000D03*
X0426479Y0098000D03*
X0416479Y0098000D03*
X0416479Y0108000D03*
X0426479Y0108000D03*
X0426479Y0118000D03*
X0416479Y0118000D03*
X0416479Y0058000D03*
X0426479Y0058000D03*
X0306479Y0172000D03*
X0296479Y0172000D03*
X0296479Y0225000D03*
X0286479Y0225000D03*
X0306479Y0225000D03*
X0316479Y0225000D03*
X0326479Y0225000D03*
X0336479Y0225000D03*
X0346479Y0225000D03*
X0366479Y0225000D03*
X0376479Y0225000D03*
X0386479Y0225000D03*
X0396479Y0225000D03*
X0406479Y0225000D03*
X0416479Y0225000D03*
X0426479Y0225000D03*
X0426479Y0325000D03*
X0416479Y0325000D03*
X0406479Y0325000D03*
X0396479Y0325000D03*
X0386479Y0325000D03*
X0376479Y0325000D03*
X0366479Y0325000D03*
X0346479Y0325000D03*
X0336479Y0325000D03*
X0326479Y0325000D03*
X0316479Y0325000D03*
X0306479Y0325000D03*
X0296479Y0325000D03*
X0286479Y0325000D03*
X0266479Y0325000D03*
X0256479Y0325000D03*
X0246479Y0325000D03*
X0236479Y0325000D03*
X0226479Y0325000D03*
X0216479Y0325000D03*
X0206479Y0325000D03*
X0186479Y0325000D03*
X0176479Y0325000D03*
X0166479Y0325000D03*
X0156479Y0325000D03*
X0146479Y0325000D03*
X0136479Y0325000D03*
X0126479Y0325000D03*
X0086479Y0250000D03*
X0086479Y0240000D03*
X0076479Y0250000D03*
X0126479Y0225000D03*
X0136479Y0225000D03*
X0146479Y0225000D03*
X0156479Y0225000D03*
X0166479Y0225000D03*
X0176479Y0225000D03*
X0186479Y0225000D03*
X0206479Y0225000D03*
X0216479Y0225000D03*
X0226479Y0225000D03*
X0236479Y0225000D03*
X0246479Y0225000D03*
X0256479Y0225000D03*
X0266479Y0225000D03*
D16*
X0241113Y0172000D03*
X0232845Y0172000D03*
D17*
X0256239Y0172000D03*
X0263719Y0172000D03*
X0208219Y0159000D03*
X0200739Y0159000D03*
X0200739Y0147000D03*
X0208219Y0147000D03*
X0131219Y0086000D03*
X0123739Y0086000D03*
X0358739Y0088000D03*
X0366219Y0088000D03*
X0366219Y0098000D03*
X0358739Y0098000D03*
X0358739Y0108000D03*
X0366219Y0108000D03*
X0366219Y0118000D03*
X0358739Y0118000D03*
X0358739Y0128000D03*
X0366219Y0128000D03*
X0366219Y0138000D03*
X0358739Y0138000D03*
X0358739Y0078000D03*
X0366219Y0078000D03*
X0366219Y0068000D03*
X0358739Y0068000D03*
D18*
X0182939Y0140583D03*
X0177939Y0140583D03*
X0172939Y0140583D03*
X0167979Y0140583D03*
X0167979Y0165417D03*
X0172979Y0165417D03*
X0177979Y0165417D03*
X0182979Y0165417D03*
D19*
X0163979Y0087800D03*
X0163979Y0085800D03*
X0163979Y0083800D03*
X0163979Y0081900D03*
X0163979Y0079900D03*
X0163979Y0077900D03*
X0163979Y0076000D03*
X0163979Y0074000D03*
X0163979Y0072000D03*
X0163979Y0070000D03*
X0163979Y0068100D03*
X0163979Y0066100D03*
X0163979Y0064100D03*
X0163979Y0062200D03*
X0163979Y0060200D03*
X0163979Y0058200D03*
X0208979Y0058200D03*
X0208979Y0060200D03*
X0208979Y0062200D03*
X0208979Y0064100D03*
X0208979Y0066100D03*
X0208979Y0068100D03*
X0208979Y0070000D03*
X0208979Y0072000D03*
X0208979Y0074000D03*
X0208979Y0076000D03*
X0208979Y0077900D03*
X0208979Y0079900D03*
X0208979Y0081900D03*
X0208979Y0083800D03*
X0208979Y0085800D03*
X0208979Y0087800D03*
D20*
X0201279Y0095500D03*
X0199279Y0095500D03*
X0197279Y0095500D03*
X0195379Y0095500D03*
X0193379Y0095500D03*
X0191379Y0095500D03*
X0189479Y0095500D03*
X0187479Y0095500D03*
X0185479Y0095500D03*
X0183479Y0095500D03*
X0181579Y0095500D03*
X0179579Y0095500D03*
X0177579Y0095500D03*
X0175679Y0095500D03*
X0173679Y0095500D03*
X0171679Y0095500D03*
X0171679Y0050500D03*
X0173679Y0050500D03*
X0175679Y0050500D03*
X0177579Y0050500D03*
X0179579Y0050500D03*
X0181579Y0050500D03*
X0183479Y0050500D03*
X0185479Y0050500D03*
X0187479Y0050500D03*
X0189479Y0050500D03*
X0191379Y0050500D03*
X0193379Y0050500D03*
X0195379Y0050500D03*
X0197279Y0050500D03*
X0199279Y0050500D03*
X0201279Y0050500D03*
D21*
X0250038Y0087252D03*
X0250038Y0090402D03*
X0250038Y0093551D03*
X0250038Y0096701D03*
X0250038Y0099850D03*
X0250038Y0103000D03*
X0250038Y0106150D03*
X0250038Y0109299D03*
X0250038Y0112449D03*
X0250038Y0115598D03*
X0250038Y0118748D03*
X0294920Y0118748D03*
X0294920Y0115598D03*
X0294920Y0112449D03*
X0294920Y0109299D03*
X0294920Y0106150D03*
X0294920Y0103000D03*
X0294920Y0099850D03*
X0294920Y0096701D03*
X0294920Y0093551D03*
X0294920Y0090402D03*
X0294920Y0087252D03*
D22*
X0288227Y0080559D03*
X0285077Y0080559D03*
X0281928Y0080559D03*
X0278778Y0080559D03*
X0275628Y0080559D03*
X0272479Y0080559D03*
X0269329Y0080559D03*
X0266180Y0080559D03*
X0263030Y0080559D03*
X0259880Y0080559D03*
X0256731Y0080559D03*
X0256731Y0125441D03*
X0259880Y0125441D03*
X0263030Y0125441D03*
X0266180Y0125441D03*
X0269329Y0125441D03*
X0272479Y0125441D03*
X0275628Y0125441D03*
X0278778Y0125441D03*
X0281928Y0125441D03*
X0285077Y0125441D03*
X0288227Y0125441D03*
D23*
X0155565Y0104000D03*
X0141392Y0104000D03*
D24*
X0347479Y0160587D03*
X0347479Y0171413D03*
X0101479Y0274087D03*
X0101479Y0284913D03*
D25*
X0375542Y0172000D03*
X0383416Y0172000D03*
D26*
X0107219Y0079528D03*
X0103479Y0079528D03*
X0099739Y0079528D03*
X0099739Y0070472D03*
X0103479Y0070472D03*
X0107219Y0070472D03*
D27*
X0072227Y0020748D03*
X0072227Y0186102D03*
X0434431Y0186102D03*
X0434431Y0020748D03*
D28*
X0341006Y0065260D03*
X0341006Y0069000D03*
X0341006Y0072740D03*
X0331951Y0072740D03*
X0331951Y0069000D03*
X0331951Y0065260D03*
X0331951Y0093260D03*
X0331951Y0097000D03*
X0331951Y0100740D03*
X0341006Y0100740D03*
X0341006Y0097000D03*
X0341006Y0093260D03*
X0341006Y0115260D03*
X0341006Y0119000D03*
X0341006Y0122740D03*
X0331951Y0122740D03*
X0331951Y0119000D03*
X0331951Y0115260D03*
X0331951Y0135260D03*
X0331951Y0139000D03*
X0331951Y0142740D03*
X0341006Y0142740D03*
X0341006Y0139000D03*
X0341006Y0135260D03*
D29*
X0333979Y0250200D03*
X0328979Y0250200D03*
X0323979Y0250200D03*
X0318979Y0250200D03*
X0313979Y0250200D03*
X0308979Y0250200D03*
X0303979Y0250200D03*
X0298979Y0250200D03*
X0293979Y0250200D03*
X0288979Y0250200D03*
X0253979Y0250200D03*
X0248979Y0250200D03*
X0243979Y0250200D03*
X0238979Y0250200D03*
X0233979Y0250200D03*
X0228979Y0250200D03*
X0223979Y0250200D03*
X0218979Y0250200D03*
X0213979Y0250200D03*
X0208979Y0250200D03*
X0173979Y0250200D03*
X0168979Y0250200D03*
X0163979Y0250200D03*
X0158979Y0250200D03*
X0153979Y0250200D03*
X0148979Y0250200D03*
X0143979Y0250200D03*
X0138979Y0250200D03*
X0133979Y0250200D03*
X0128979Y0250200D03*
X0128979Y0289800D03*
X0133979Y0289800D03*
X0138979Y0289800D03*
X0143979Y0289800D03*
X0148979Y0289800D03*
X0153979Y0289800D03*
X0158979Y0289800D03*
X0163979Y0289800D03*
X0168979Y0289800D03*
X0173979Y0289800D03*
X0208979Y0289800D03*
X0213979Y0289800D03*
X0218979Y0289800D03*
X0223979Y0289800D03*
X0228979Y0289800D03*
X0233979Y0289800D03*
X0238979Y0289800D03*
X0243979Y0289800D03*
X0248979Y0289800D03*
X0253979Y0289800D03*
X0288979Y0289800D03*
X0293979Y0289800D03*
X0298979Y0289800D03*
X0303979Y0289800D03*
X0308979Y0289800D03*
X0313979Y0289800D03*
X0318979Y0289800D03*
X0323979Y0289800D03*
X0328979Y0289800D03*
X0333979Y0289800D03*
X0368979Y0289800D03*
X0373979Y0289800D03*
X0378979Y0289800D03*
X0383979Y0289800D03*
X0388979Y0289800D03*
X0393979Y0289800D03*
X0398979Y0289800D03*
X0403979Y0289800D03*
X0408979Y0289800D03*
X0413979Y0289800D03*
X0413979Y0250200D03*
X0408979Y0250200D03*
X0403979Y0250200D03*
X0398979Y0250200D03*
X0393979Y0250200D03*
X0388979Y0250200D03*
X0383979Y0250200D03*
X0378979Y0250200D03*
X0373979Y0250200D03*
X0368979Y0250200D03*
D30*
X0086479Y0272400D02*
X0086479Y0277600D01*
X0086479Y0302400D02*
X0086479Y0307600D01*
D31*
X0180479Y0179000D03*
X0162479Y0173000D03*
X0146479Y0175000D03*
X0122479Y0149000D03*
X0112479Y0135000D03*
X0124479Y0119000D03*
X0140479Y0133000D03*
X0156479Y0133000D03*
X0166479Y0119000D03*
X0184479Y0123000D03*
X0202479Y0105000D03*
X0211479Y0099000D03*
X0218479Y0103000D03*
X0222479Y0095000D03*
X0228479Y0079000D03*
X0234479Y0079000D03*
X0240479Y0079000D03*
X0248479Y0061000D03*
X0272479Y0065000D03*
X0264479Y0089000D03*
X0274479Y0091000D03*
X0284479Y0099000D03*
X0276479Y0105000D03*
X0268479Y0113000D03*
X0259479Y0100000D03*
X0236479Y0109000D03*
X0197479Y0086000D03*
X0191479Y0082000D03*
X0187479Y0088000D03*
X0176479Y0085000D03*
X0174479Y0076000D03*
X0176479Y0067000D03*
X0177479Y0058000D03*
X0187479Y0058000D03*
X0199479Y0058000D03*
X0200479Y0066000D03*
X0200479Y0076000D03*
X0216479Y0053000D03*
X0220479Y0039000D03*
X0232479Y0035000D03*
X0214479Y0027000D03*
X0206479Y0031000D03*
X0166479Y0027000D03*
X0156479Y0055000D03*
X0149479Y0068000D03*
X0150479Y0083000D03*
X0160479Y0093000D03*
X0124479Y0063000D03*
X0098479Y0039000D03*
X0120479Y0029000D03*
X0076479Y0119000D03*
X0076479Y0143000D03*
X0208479Y0173000D03*
X0222479Y0175000D03*
X0226479Y0151000D03*
X0244479Y0151000D03*
X0270479Y0141000D03*
X0284479Y0153000D03*
X0314479Y0157000D03*
X0334479Y0157000D03*
X0322479Y0143000D03*
X0314479Y0139000D03*
X0322479Y0135000D03*
X0322479Y0123000D03*
X0314479Y0118000D03*
X0322479Y0115000D03*
X0322479Y0101000D03*
X0314479Y0098000D03*
X0322479Y0093000D03*
X0322479Y0073000D03*
X0314479Y0069000D03*
X0322479Y0065000D03*
X0334479Y0041000D03*
X0294479Y0041000D03*
X0378479Y0046000D03*
X0284479Y0115000D03*
X0362479Y0151000D03*
X0334479Y0183000D03*
D32*
X0356479Y0250000D03*
X0356479Y0300000D03*
X0426479Y0300000D03*
X0426479Y0245000D03*
X0276479Y0250000D03*
X0276479Y0300000D03*
X0196479Y0300000D03*
X0196479Y0250000D03*
X0116479Y0250000D03*
X0116479Y0300000D03*
X0076479Y0320000D03*
M02*
